<?xml version="1.0" encoding="UTF-8"?>
<svg width="237px" height="237px" viewBox="0 0 237 237" version="1.1" xmlns="http://www.w3.org/2000/svg" xmlns:xlink="http://www.w3.org/1999/xlink">
    <!-- Generator: Sketch 62 (91390) - https://sketch.com -->
    <title>Globe Illo</title>
    <desc>Created with Sketch.</desc>
    <g id="Home" stroke="none" stroke-width="1" fill="none" fill-rule="evenodd">
        <g id="Cirrus---Homepage" transform="translate(-242.000000, -3389.000000)" fill="#FFFFFF" fill-rule="nonzero">
            <g id="Globe-Illo" transform="translate(242.000000, 3389.000000)">
                <g id="noun_Sphere_2195470">
                    <path d="M118.5,0 C183.945432,0 237,53.0545676 237,118.5 C237,183.945432 183.945432,237 118.5,237 C53.0545676,237 0,183.945432 0,118.5 C0,53.0545676 53.0545676,0 118.5,0 Z M2.63057616,113.889493 C6.10695051,110.179606 13.7184229,106.809471 24.4487857,103.978203 C25.1907835,96.4551367 26.5014226,89.1508485 28.3254751,82.1340819 C14.3863937,90.5566507 5.17437252,100.953155 2.70246926,112.322122 C2.67503303,112.843664 2.65105172,113.366172 2.63057616,113.889493 Z M26.0211361,103.572452 C37.2105985,100.753125 48.9020933,99.0241337 60.3510822,97.7396606 C61.2995631,87.0360228 62.9680927,76.831318 65.2528198,67.3354334 C53.1748298,70.4163195 41.033584,74.8027639 30.1931206,81.0332791 C28.2299055,88.2540392 26.818362,95.7931105 26.0211361,103.572452 L26.0211361,103.572452 Z M61.8957931,97.5695051 C72.1510517,96.4588965 83.3399553,95.6407377 95.1717305,95.1718829 C95.6405345,83.3401585 96.4588965,72.1512041 97.5695051,61.8958947 C86.7600854,62.8676456 76.4703282,64.5785489 66.9193171,66.9193171 C64.5784981,76.4702774 62.8676964,86.7602378 61.8957931,97.5695051 L61.8957931,97.5695051 Z M96.6990143,95.1135047 C111.216391,94.5776852 125.783609,94.5778376 140.300986,95.1135047 C139.828574,83.2443857 139.003658,72.0286048 137.884361,61.7619652 C125.018951,60.6942892 111.981049,60.694086 99.1156387,61.7619652 C97.9963418,72.0286048 97.1714257,83.2443857 96.6990143,95.1135047 L96.6990143,95.1135047 Z M141.828269,95.1718829 C153.660248,95.6405853 164.848745,96.4589981 175.104207,97.5695051 C174.132304,86.7602378 172.421502,76.4702774 170.080683,66.9193171 C160.529672,64.5785489 150.239965,62.8676456 139.430495,61.8958947 C140.541104,72.1512041 141.359466,83.3401585 141.828269,95.1718829 Z M176.648918,97.7396606 C188.097856,99.0239813 199.789452,100.753125 210.978864,103.572452 C210.181638,95.7931105 208.770095,88.2540392 206.806879,81.0332791 C195.963672,74.8026115 183.828015,70.4168276 171.74718,67.3354334 C174.031907,76.831318 175.700437,87.0360228 176.648918,97.7396606 L176.648918,97.7396606 Z M212.551214,103.978203 C223.281577,106.809471 230.893049,110.179606 234.369424,113.889493 C234.348948,113.366172 234.324967,112.843664 234.297531,112.322122 C231.825577,100.953104 222.614013,90.5565491 208.674525,82.1340819 C210.498577,89.1508485 211.809217,96.4551367 212.551214,103.978203 Z M234.369424,123.110507 C230.893049,126.820394 223.281577,130.190529 212.551214,133.021797 C211.809217,140.544863 210.498577,147.849152 208.674525,154.865918 C222.614013,146.443451 231.825577,136.046896 234.297531,124.677878 C234.324967,124.156336 234.348948,123.633828 234.369424,123.110507 Z M210.978864,133.427548 C199.789452,136.246875 188.097856,137.976019 176.648918,139.260339 C175.700437,149.963977 174.031907,160.168682 171.74718,169.664567 C183.828015,166.583172 195.963672,162.197388 206.806879,155.966721 C208.770095,148.745961 210.181638,141.20689 210.978864,133.427548 L210.978864,133.427548 Z M175.104207,139.430495 C164.848745,140.541002 153.660248,141.359415 141.828269,141.828117 C141.359466,153.659841 140.541104,164.848796 139.430495,175.104105 C150.239965,174.132354 160.529672,172.421451 170.080683,170.080683 C172.421502,160.529723 174.132304,150.239762 175.104207,139.430495 Z M140.300986,141.886495 C125.783609,142.422162 111.216391,142.422315 96.6990143,141.886495 C97.1714257,153.755614 97.9963418,164.971395 99.1156387,175.238035 C111.981049,176.305914 125.018951,176.305711 137.884361,175.238035 C139.003658,164.971395 139.828574,153.755614 140.300986,141.886495 L140.300986,141.886495 Z M95.1717305,141.828117 C83.3399553,141.359262 72.1510517,140.541104 61.8957931,139.430495 C62.8676964,150.239762 64.5784981,160.529723 66.9193171,170.080683 C76.4703282,172.421451 86.7600854,174.132354 97.5695051,175.104105 C96.4588965,164.848796 95.6405345,153.659841 95.1717305,141.828117 Z M60.3510822,139.260339 C48.9020933,137.975866 37.2105985,136.246875 26.0211361,133.427548 C26.818362,141.20689 28.2299055,148.745961 30.1931206,155.966721 C41.033584,162.197236 53.1748298,166.583681 65.2528198,169.664567 C62.9680927,160.168682 61.2995631,149.963977 60.3510822,139.260339 L60.3510822,139.260339 Z M24.4487857,133.021797 C13.7184229,130.190529 6.10695051,126.820394 2.63057616,123.110507 C2.65105172,123.633828 2.67503303,124.156336 2.70246926,124.677878 C5.17437252,136.046845 14.3863937,146.443349 28.3254751,154.865918 C26.5014226,147.849152 25.1907835,140.544863 24.4487857,133.021797 L24.4487857,133.021797 Z M25.866477,105.165989 C25.0580226,114.020628 25.0580226,122.979372 25.866477,131.834011 C37.076415,134.662585 48.7474342,136.417691 60.219185,137.713393 C59.1763032,124.959608 59.1763032,112.040392 60.219185,99.2866071 C48.7474342,100.582309 37.076415,102.337415 25.866477,105.165989 Z M24.3004268,105.570369 C12.3520984,108.724926 4.57931105,112.447922 2.55858144,116.429479 C2.5343461,117.809674 2.5343461,119.190326 2.55858144,120.570521 C4.57931105,124.552078 12.3520984,128.275074 24.3004268,131.429631 C23.5480642,122.839803 23.5480642,114.160197 24.3004268,105.570369 Z M61.7619652,137.884361 C72.0286556,139.003658 83.2440809,139.828524 95.1133523,140.300884 C94.577482,125.784168 94.577482,111.215832 95.1133523,96.6991159 C83.2440809,97.1714765 72.0286556,97.9963418 61.7619652,99.1156387 C60.6940352,111.980388 60.6940352,125.019612 61.7619652,137.884361 L61.7619652,137.884361 Z M96.6403821,140.359466 C111.196271,140.899197 125.803729,140.899197 140.359618,140.359466 C140.899451,125.804187 140.899451,111.195813 140.359618,96.6405345 C125.803729,96.1008028 111.196271,96.1008028 96.6403821,96.6405345 C96.1005487,111.195813 96.1005487,125.804187 96.6403821,140.359466 Z M141.886648,140.300884 C153.755919,139.828574 164.971294,139.003607 175.238035,137.884361 C176.305965,125.019612 176.305965,111.980388 175.238035,99.1156387 C164.971294,97.9963926 153.755919,97.1714257 141.886648,96.6991159 C142.422518,111.215832 142.422518,125.784168 141.886648,140.300884 Z M176.780815,137.713393 C188.252515,136.417742 199.923636,134.662585 211.133523,131.834011 C211.941977,122.979372 211.941977,114.020628 211.133523,105.165989 C199.923636,102.337415 188.252515,100.582258 176.780815,99.2866071 C177.823697,112.040392 177.823697,124.959608 176.780815,137.713393 Z M212.699573,131.429631 C224.647902,128.275074 232.420689,124.552078 234.441419,120.570521 C234.465654,119.190326 234.465654,117.809674 234.441419,116.429479 C232.420689,112.447922 224.647902,108.724926 212.699573,105.570369 C213.451936,114.160197 213.451936,122.839803 212.699573,131.429631 L212.699573,131.429631 Z M3.22909257,105.79809 C7.4585408,96.0927751 16.439183,87.2929072 28.8892897,80.0331267 C32.1301697,68.3260847 36.8077939,57.4520882 42.6609084,47.7404735 C23.2602886,61.0760085 8.04501575,80.4774413 3.4469058,103.939386 C3.36942384,104.557464 3.29681943,105.177065 3.22909257,105.79809 Z M30.7739051,78.9606747 C41.6191444,72.9338482 53.6594858,68.6701555 65.6639061,65.6639061 C68.6710192,53.6560817 72.9337974,41.6238187 78.9595061,30.774464 C66.8115029,34.2844731 55.6022762,39.3659689 45.7125292,45.7125292 C39.3653084,55.6022254 34.2842191,66.8124682 30.7739051,78.9606747 L30.7739051,78.9606747 Z M67.3354334,65.2528198 C76.8313688,62.9680927 87.036226,61.2995122 97.7397114,60.3508282 C99.0241845,48.902703 100.752871,37.2093791 103.572401,26.0207804 C95.7933137,26.8174982 88.2544457,28.2286861 81.033838,30.1914948 C74.8035261,41.0299766 70.4158114,53.1769637 67.3354334,65.2528198 L67.3354334,65.2528198 Z M99.2866071,60.2193883 C112.041459,59.176354 124.958541,59.1766589 137.713393,60.2193883 C136.417742,48.7480439 134.66289,37.0757545 131.833808,25.8663246 C122.978559,25.0582258 114.021441,25.0582258 105.166192,25.8663246 C102.33711,37.0757545 100.582258,48.7480439 99.2866071,60.2193883 L99.2866071,60.2193883 Z M139.260289,60.3508282 C149.964028,61.2992582 160.16853,62.9682451 169.664567,65.2528198 C166.584189,53.1769637 162.196474,41.0299766 155.966162,30.1914948 C148.745554,28.2286861 141.206686,26.8174982 133.427599,26.0207804 C136.247129,37.2093791 137.975815,48.902703 139.260289,60.3508282 L139.260289,60.3508282 Z M171.336094,65.6639061 C183.347627,68.6717305 195.373743,72.9335433 206.226095,78.9606747 C202.715781,66.8124682 197.634692,55.6022254 191.287471,45.7125292 C181.397724,39.3659689 170.188497,34.2844731 158.040494,30.774464 C164.066203,41.6238187 168.328981,53.6560817 171.336094,65.6639061 L171.336094,65.6639061 Z M208.11071,80.0331267 C220.560919,87.292958 229.541002,96.0929784 233.770907,105.79809 C233.703181,105.177065 233.630576,104.557464 233.553094,103.939386 C228.954984,80.4774413 213.739711,61.0760085 194.339092,47.7404735 C200.192206,57.4520882 204.86983,68.3260847 208.11071,80.0331267 Z M233.770907,131.20191 C229.541002,140.907022 220.560919,149.707042 208.11071,156.966873 C204.86983,168.673915 200.192206,179.547912 194.339092,189.259526 C213.739711,175.923991 228.954984,156.522559 233.553094,133.060614 C233.630576,132.442536 233.703181,131.822935 233.770907,131.20191 Z M206.226095,158.039325 C195.373743,164.066457 183.347627,168.328269 171.336094,171.336094 C168.328981,183.343918 164.066203,195.376181 158.040494,206.225536 C170.188497,202.715527 181.397724,197.634031 191.287471,191.287471 C197.634692,181.397775 202.715781,170.187532 206.226095,158.039325 L206.226095,158.039325 Z M169.664567,171.74718 C160.16853,174.031755 149.964028,175.700742 139.260289,176.649172 C137.975815,188.097297 136.247129,199.790621 133.427599,210.97922 C141.206686,210.182502 148.745554,208.771314 155.966162,206.808505 C162.196474,195.970023 166.584189,183.823036 169.664567,171.74718 L169.664567,171.74718 Z M137.713393,176.780612 C124.958541,177.823341 112.041459,177.823646 99.2866071,176.780612 C100.582258,188.251956 102.33711,199.924246 105.166192,211.133675 C114.021441,211.941774 122.978559,211.941774 131.833808,211.133675 C134.66289,199.924246 136.417742,188.251956 137.713393,176.780612 L137.713393,176.780612 Z M97.7397114,176.649172 C87.036226,175.700488 76.8313688,174.031907 67.3354334,171.74718 C70.4158114,183.823036 74.8035261,195.970023 81.033838,206.808505 C88.2544457,208.771314 95.7933137,210.182502 103.572401,210.97922 C100.752871,199.790621 99.0241845,188.097297 97.7397114,176.649172 L97.7397114,176.649172 Z M65.6639061,171.336094 C53.6594858,168.329845 41.6191444,164.066152 30.7739051,158.039325 C34.2842191,170.187532 39.3653084,181.397775 45.7125292,191.287471 C55.6022762,197.634031 66.8115029,202.715527 78.9595061,206.225536 C72.9337974,195.376181 68.6710192,183.343918 65.6639061,171.336094 Z M28.8892897,156.966873 C16.439183,149.707093 7.4585408,140.907225 3.22909257,131.20191 C3.29681943,131.822935 3.36942384,132.442536 3.4469058,133.060614 C8.04501575,156.522559 23.2602886,175.923991 42.6609084,189.259526 C36.8077939,179.547912 32.1301697,168.673915 28.8892897,156.966873 Z M6.31343359,89.0562951 C13.8557057,70.503963 27.9228737,55.3865461 44.6117773,44.6117773 C55.3893913,27.9217051 70.5006605,13.8570267 89.0562951,6.31343359 C48.6713749,16.8835992 16.8835992,48.6713749 6.31343359,89.0562951 Z M47.7404735,42.6609084 C57.451885,36.8084544 68.3245605,32.1302205 80.0312976,28.8898486 C87.2913322,16.4386749 96.092267,7.45879484 105.79809,3.22909257 C105.177065,3.29681943 104.557464,3.36942384 103.939386,3.4469058 C80.4717,8.04613352 61.0812417,23.2590184 47.7404735,42.6609084 Z M82.1355553,28.3236968 C89.1516106,26.5004065 96.4554923,25.191444 103.977695,24.4499035 C106.809064,13.7188802 110.179352,6.10700132 113.889493,2.63057616 C113.366172,2.65105172 112.843664,2.67503303 112.322122,2.70246926 C100.953765,5.17427091 90.5578701,14.3858348 82.1355553,28.3236968 Z M105.570064,24.3019002 C114.165481,23.5487755 122.834519,23.5487755 131.429936,24.3019002 C128.275328,12.3533686 124.55223,4.57926024 120.570521,2.55858144 C119.190326,2.5343461 117.809674,2.5343461 116.429479,2.55858144 C112.44777,4.57926024 108.724672,12.3533686 105.570064,24.3019002 L105.570064,24.3019002 Z M133.022305,24.4499035 C140.544508,25.191444 147.848389,26.5004065 154.864445,28.3236968 C146.44213,14.3858348 136.046235,5.17427091 124.677878,2.70246926 C124.156336,2.67503303 123.633828,2.65105172 123.110507,2.63057616 C126.820648,6.10700132 130.190936,13.7188802 133.022305,24.4499035 L133.022305,24.4499035 Z M156.968702,28.8898486 C168.675439,32.1302205 179.548115,36.8084544 189.259526,42.6609084 C175.918758,23.2590184 156.5283,8.04613352 133.060614,3.4469058 C132.442536,3.36942384 131.822935,3.29681943 131.20191,3.22909257 C140.907733,7.45879484 149.708668,16.4386749 156.968702,28.8898486 L156.968702,28.8898486 Z M192.388223,44.6117773 C209.077126,55.3865461 223.144294,70.503963 230.686566,89.0562951 C220.116401,48.6713749 188.328625,16.8835992 147.943705,6.31343359 C166.499339,13.8570267 181.610609,27.9217051 192.388223,44.6117773 Z M230.686566,147.943705 C223.144294,166.496037 209.077126,181.613454 192.388223,192.388223 C181.610609,209.078295 166.499339,223.142973 147.943705,230.686566 C188.328625,220.116401 220.116401,188.328625 230.686566,147.943705 L230.686566,147.943705 Z M189.259526,194.339092 C179.548115,200.191546 168.675439,204.869779 156.968702,208.110151 C149.708668,220.561325 140.907733,229.541205 131.20191,233.770907 C131.822935,233.703181 132.442536,233.630576 133.060614,233.553094 C156.5283,228.953866 175.918758,213.740982 189.259526,194.339092 Z M154.864445,208.676303 C147.848389,210.499594 140.544508,211.808556 133.022305,212.550097 C130.190936,223.28112 126.820648,230.892999 123.110507,234.369424 C123.633828,234.348948 124.156336,234.324967 124.677878,234.297531 C136.046235,231.825729 146.44213,222.614165 154.864445,208.676303 Z M131.429936,212.6981 C122.834519,213.451224 114.165481,213.451224 105.570064,212.6981 C108.724672,224.646631 112.44777,232.42074 116.429479,234.441419 C117.809674,234.465654 119.190326,234.465654 120.570521,234.441419 C124.55223,232.42074 128.275328,224.646631 131.429936,212.6981 L131.429936,212.6981 Z M103.977695,212.550097 C96.4554923,211.808556 89.1516106,210.499594 82.1355553,208.676303 C90.5578701,222.614165 100.953765,231.825729 112.322122,234.297531 C112.843664,234.324967 113.366172,234.348948 113.889493,234.369424 C110.179352,230.892999 106.809064,223.28112 103.977695,212.550097 Z M80.0312976,208.110151 C68.3245605,204.869779 57.451885,200.191546 47.7404735,194.339092 C61.0812417,213.740982 80.4717,228.953866 103.939386,233.553094 C104.557464,233.630576 105.177065,233.703181 105.79809,233.770907 C96.092267,229.541205 87.2913322,220.561325 80.0312976,208.110151 L80.0312976,208.110151 Z M44.6117773,192.388223 C27.9228737,181.613454 13.8557057,166.496037 6.31343359,147.943705 C16.8835992,188.328625 48.6713749,220.116401 89.0562951,230.686566 C70.5006605,223.142973 55.3893913,209.078295 44.6117773,192.388223 Z" id="Shape"></path>
                </g>
                <g id="noun_Location_557127" transform="translate(184.000000, 0.000000)">
                    <path d="M13.5271994,0 C6.07902484,0 0,6.16666667 0,13.7222222 C0,13.9444444 0,14.2222222 0,14.4444444 L0.0547659895,15.5555556 C0.273829948,16.7222222 0.766723853,18.7222222 1.86204364,21.5555556 C3.50502333,25.6666667 6.84574869,32.2777778 13.5819654,41 C16.7583928,36.5555556 26.013845,23.1111111 26.8353349,16.0555556 L26.8353349,16 C26.9448668,15.2777778 26.9996328,14.5 26.9996328,13.7222222 C27.0543988,6.16666667 20.975374,0 13.5271994,0 Z M13.4724334,19.8333333 C10.1864741,19.8333333 7.50294057,17.1111111 7.50294057,13.7777778 C7.50294057,10.4444444 10.1864741,7.72222222 13.4724334,7.72222222 C16.7583928,7.72222222 19.4419263,10.4444444 19.4419263,13.7777778 C19.4419263,17.1111111 16.7583928,19.8333333 13.4724334,19.8333333 Z" id="Shape"></path>
                </g>
            </g>
        </g>
    </g>
</svg>