<svg width="418" height="88" viewBox="0 0 418 88" fill="none" xmlns="http://www.w3.org/2000/svg">
<path d="M385.248 29.2586H414.071V20.5922H385.248C377.666 20.5922 371.523 26.7357 371.523 34.3171C371.523 41.8986 377.666 48.0421 385.248 48.0421H404.025C406.817 48.0421 409.084 50.3018 409.084 53.0942C409.084 55.8867 406.817 58.1528 404.025 58.1528H373.269L367.851 66.8192H404.025C411.606 66.8192 417.75 60.6757 417.75 53.1007C417.75 45.5256 411.606 39.3757 404.025 39.3757H385.248C382.455 39.3757 380.189 37.1161 380.189 34.3236C380.189 31.5311 382.455 29.265 385.248 29.265V29.2586ZM349.857 20.5922V47.5157C349.857 53.3895 345.1 58.1464 339.226 58.1464H331.6C325.726 58.1464 320.969 53.3895 320.969 47.5157V20.5922H312.303V47.5157C312.303 58.1721 320.944 66.8128 331.6 66.8128H339.226C349.883 66.8128 358.523 58.1721 358.523 47.5157V20.5922H349.857ZM299.297 34.3171C299.297 26.7421 293.153 20.5986 285.578 20.5986H253.076V29.265H285.578C288.371 29.265 290.631 31.5311 290.631 34.3171C290.631 37.1032 288.364 39.3693 285.578 39.3693H253.076V66.8128H261.743V48.0357H277.689C279.762 48.0357 281.688 49.1013 282.786 50.8603L292.755 66.8128H302.975L290.631 47.0599C295.702 45.0442 299.297 40.1011 299.297 34.3107V34.3171ZM240.077 34.3171C240.077 26.7421 233.933 20.5986 226.358 20.5986H193.856V29.265H226.358C229.151 29.265 231.41 31.5311 231.41 34.3171C231.41 37.1032 229.144 39.3693 226.358 39.3693H193.856V66.8128H202.523V48.0357H218.469C220.542 48.0357 222.468 49.1013 223.566 50.8603L233.535 66.8128H243.755L231.41 47.0599C236.482 45.0442 240.077 40.1076 240.077 34.3107V34.3171ZM170.027 20.5922H178.693V66.8128H170.027V20.5922ZM127.934 29.2586H154.858V20.5922H127.934C117.278 20.5922 108.637 29.2329 108.637 39.8893V47.5157C108.637 58.1721 117.278 66.8128 127.934 66.8128H154.858V58.1464H127.934C122.06 58.1464 117.304 53.3895 117.304 47.5157V39.8893C117.304 34.0154 122.06 29.2586 127.934 29.2586ZM82.9334 77.007V79.7802H82.3492V77.007H81.3992V76.5319H83.8578V77.007H82.9334ZM86.7402 79.7866C86.7402 79.472 86.7659 77.2252 86.7659 77.2252L86.002 79.7866H85.4755L84.7373 77.2766V79.7866H84.1852V76.5383H84.9492L85.7388 79.1254L86.5027 76.5383H87.2409V79.7866H86.7402ZM49.5006 2.97063H72.4632C76.6551 2.97063 80.0511 6.36656 80.0511 10.5585V49.7689C80.0511 49.8524 80.0511 49.9358 80.0446 50.0257L82.651 52.4523V10.5585C82.651 4.93501 78.0931 0.370728 72.4632 0.370728H37.1558C31.1985 0.370728 25.7355 2.46991 21.4473 5.95571L28.2006 10.3017C34.0809 5.71177 41.4697 2.97063 49.507 2.97063H49.5006Z" fill="white"/>
<path d="M95.6559 66.9478L62.6596 36.2111C67.8594 29.5284 71.7946 22.2615 74.5036 14.6993C75.6463 11.2328 75.9159 8.63287 74.8824 7.82401C73.8424 7.01515 71.3902 7.9203 68.3088 9.87826C61.6453 14.3655 55.5725 19.9697 50.3726 26.6525L12.4654 2.23903C10.3598 0.878089 7.6315 0.955123 5.59651 2.42519L2.81686 4.4345L0.518669 6.09074C0.204113 6.31542 0.24905 6.79689 0.595704 6.96379L2.0401 7.66352C2.5023 7.8882 2.93241 8.16424 3.31758 8.49164L13.6081 17.1772C12.735 19.7194 12.2343 22.4413 12.2343 25.2851V56.5096L14.8342 53.1651V37.6298C14.8342 31.8266 16.2657 26.3572 18.7886 21.5489L38.7405 38.3938C39.4957 39.0321 40.0073 39.9117 40.1886 40.8838C40.3699 41.8559 40.2099 42.8607 39.7355 43.7284L29.6633 62.0882L17.1902 56.1309C16.6804 55.8872 16.1028 55.825 15.5528 55.9546C15.0029 56.0842 14.5138 56.3978 14.1666 56.8435L12.2407 59.3214V76.8338C12.2407 82.4573 16.7986 87.0216 22.4285 87.0216H57.7358C68.7838 87.0216 78.1435 79.8253 81.4046 69.8623L91.8427 77.3281C92.26 77.6234 92.6323 77.9765 92.9662 78.3617L93.9997 79.5942C94.2501 79.8895 94.7187 79.8125 94.8663 79.453L97.1774 73.6305C98.1018 71.3002 97.5048 68.6361 95.6688 66.9285L95.6559 66.9478ZM58.5062 28.8736C58.0322 28.5043 57.49 28.2321 56.9107 28.0725C56.3314 27.9129 55.7263 27.8692 55.13 27.9437C54.5338 28.0182 53.9581 28.2096 53.4359 28.5069C52.9136 28.8041 52.4552 29.2014 52.0867 29.6761L44.1457 40.4416C43.9852 40.6599 43.6771 40.6984 43.4653 40.5379C43.3695 40.4642 43.3055 40.3566 43.2864 40.2373C43.2673 40.118 43.2945 39.9958 43.3625 39.8959L51.5538 27.6924C54.2886 23.616 59.0839 19.8221 63.1154 22.9548C67.1469 26.0875 64.6432 31.6725 61.3693 35.3252L51.5538 46.2641C51.4713 46.3603 51.3539 46.4197 51.2275 46.4294C51.101 46.439 50.976 46.398 50.8798 46.3155C50.7836 46.2329 50.7241 46.1155 50.7145 45.9891C50.7049 45.8627 50.7459 45.7376 50.8284 45.6414L59.3086 35.2996C60.0515 34.3411 60.3842 33.1273 60.2338 31.924C60.0834 30.7207 59.4621 29.6261 58.5062 28.88V28.8736ZM45.3847 84.4346H22.4221C18.2301 84.4346 14.8342 81.0386 14.8342 76.8467V61.9919L25.0156 69.9072L19.3664 78.2782C19.1995 78.5222 19.2508 78.856 19.4883 79.0357C19.7194 79.2155 20.0597 79.1898 20.2523 78.9651L26.9735 71.4286L39.3503 81.0515C39.7419 81.3596 40.3133 81.289 40.615 80.891L42.2969 78.7276C42.6433 78.2812 42.827 77.73 42.8177 77.1651C42.8083 76.6001 42.6065 76.0552 42.2455 75.6206L33.3994 64.9963L48.7164 50.7192C50.2057 49.3262 52.4718 49.185 54.1345 50.3662L76.0058 66.0105C70.1833 76.9622 58.6538 84.4281 45.3847 84.4281V84.4346Z" fill="white"/>
</svg>
