<svg width="10" height="12" viewBox="0 0 10 12" fill="none" xmlns="http://www.w3.org/2000/svg">
<path fill-rule="evenodd" clip-rule="evenodd" d="M4.64062 5.75378C5.74519 5.75378 6.64062 4.85835 6.64062 3.75378C6.64062 2.64921 5.74519 1.75378 4.64062 1.75378C3.53606 1.75378 2.64062 2.64921 2.64062 3.75378C2.64062 4.85835 3.53606 5.75378 4.64062 5.75378ZM4.64062 6.75378C6.29748 6.75378 7.64062 5.41064 7.64062 3.75378C7.64062 2.09693 6.29748 0.753784 4.64062 0.753784C2.98377 0.753784 1.64062 2.09693 1.64062 3.75378C1.64062 5.41064 2.98377 6.75378 4.64062 6.75378Z" fill="white"/>
<path fill-rule="evenodd" clip-rule="evenodd" d="M4.64062 8.25378C2.70763 8.25378 1.14062 9.82079 1.14062 11.7538H0.140625C0.140625 9.2685 2.15534 7.25378 4.64062 7.25378C7.12591 7.25378 9.14062 9.2685 9.14062 11.7538H8.14062C8.14062 9.82079 6.57362 8.25378 4.64062 8.25378Z" fill="white"/>
</svg>
