<svg xmlns="http://www.w3.org/2000/svg" width="30" height="30" fill="none"><g clip-path="url(#a)"><path fill="#fff" d="m12.5 12.072 6.146 2.923L12.5 17.93v-5.857Zm8.052 9.044c-2.627.179-8.48.178-11.104 0C6.603 20.92 6.27 19.528 6.25 15c.021-4.536.356-5.92 3.198-6.115 2.624-.18 8.477-.18 11.104 0 2.846.195 3.176 1.587 3.198 6.115-.022 4.536-.357 5.92-3.198 6.116ZM15 0C6.716 0 0 6.716 0 15c0 8.284 6.716 15 15 15 8.284 0 15-6.716 15-15 0-8.284-6.716-15-15-15Z"/></g><defs><clipPath id="a"><path fill="#fff" d="M0 0h30v30H0z"/></clipPath></defs></svg>